<svg xmlns="http://www.w3.org/2000/svg" viewBox="80 -1585 1074 1657">
<title>U+0050 P</title>
<metadata>{"codepoint": "U+0050", "advance": 1133, "unitsPerEm": 2048, "sourceId": "oswald", "fontSha256": "dbeaeab99e1c64baf6616e820117d2a2039c18df9acb10e1ba58679218bbe71d"}</metadata>
<path fill="black" transform="scale(1,-1)" d="M144 -8V1521H671Q824 1521 914.5 1469.5Q1005 1418 1047.5 1319.5Q1090 1221 1090 1082Q1090 917 1034.0 822.5Q978 728 876.5 685.0Q775 642 637 642H480V-8ZM480 873H601Q677 873 717.5 895.5Q758 918 772.0 964.0Q786 1010 786 1086Q786 1156 775.5 1203.0Q765 1250 725.0 1275.5Q685 1301 600 1301H480Z"/>
</svg>
