<svg xmlns="http://www.w3.org/2000/svg" viewBox="17 -1656 941 1754">
<title>U+00F2 ò</title>
<metadata>{"codepoint": "U+00F2", "advance": 983, "unitsPerEm": 2048, "sourceId": "archivo", "fontSha256": "dbeaeab99e1c64baf6616e820117d2a2039c18df9acb10e1ba58679218bbe71d"}</metadata>
<path fill="black" transform="scale(1,-1)" d="M505 -34Q335 -34 245.5 22.5Q156 79 118.5 197.0Q81 315 81 575Q81 835 118.5 949.0Q156 1063 245.5 1117.0Q335 1171 505 1171Q627 1171 714.0 1117.0Q801 1063 847.5 949.0Q894 835 894 575Q894 315 847.5 197.0Q801 79 714.0 22.5Q627 -34 505 -34ZM505 187Q549 187 575.0 211.0Q601 235 612.5 292.0Q624 349 624 473V676Q624 799 612.5 855.5Q601 912 575.0 935.0Q549 958 505 958Q446 958 409.5 935.0Q373 912 357.0 855.5Q341 799 341 676V473Q341 349 357.0 292.0Q373 235 409.5 211.0Q446 187 505 187ZM615 1290H431L200 1583V1592H497Z"/>
</svg>
